<?xml version="1.0" encoding="utf-8"?>
<!-- Generator: Adobe Illustrator 25.4.1, SVG Export Plug-In . SVG Version: 6.00 Build 0)  -->
<svg version="1.1" id="Layer_1" xmlns="http://www.w3.org/2000/svg" xmlns:xlink="http://www.w3.org/1999/xlink" x="0px" y="0px"
	 viewBox="0 0 268 318" style="enable-background:new 0 0 268 318;" xml:space="preserve">
<style type="text/css">
	.st0{fill:#FFFFFF;}
	.st1{fill:#F2A976;stroke:#360E66;}
	.st2{fill:#360E66;stroke:#360E66;}
	.st3{fill:#F2A976;}
	.st4{fill:#360E66;}
	.st5{fill:#011627;stroke:#360E66;}
	.st6{fill:#FBFBFB;stroke:#360E66;}
	.st7{fill:#FBFBFB;stroke:#360E66;stroke-width:2;}
	.st8{fill:none;stroke:#360E66;stroke-width:1.3;}
	.st9{fill:#360E66;stroke:#360E66;stroke-width:0.75;}
	.st10{opacity:0.13;}
	.st11{fill:#F2A976;stroke:#360E66;stroke-width:2;stroke-miterlimit:10;}
	.st12{fill:#F37820;}
	.st13{fill:none;stroke:#F37820;}
	.st14{fill:#011627;}
	.st15{fill:#FFFFFF;filter:url(#Adobe_OpacityMaskFilter);}
	.st16{mask:url(#path-24-inside-1_15_97_00000174586427584498210610000002450362484156249010_);fill:#360E66;}
	.st17{fill:#FFFFFF;filter:url(#Adobe_OpacityMaskFilter_00000085932697358908511520000010691787781190399129_);}
	.st18{mask:url(#path-27-inside-2_15_97_00000172434988690346858160000000068157952296947128_);fill:#360E66;}
	.st19{fill:#360E66;stroke:#360E66;stroke-miterlimit:10;}
	.st20{fill:#0D1726;stroke:#360E66;}
	.st21{fill:#FFFFFF;filter:url(#Adobe_OpacityMaskFilter_00000075147484230605376880000000876181916814097318_);}
	.st22{mask:url(#path-40-inside-3_15_97_00000114065804416570593530000010024869642112073612_);fill:#360E66;}
	.st23{fill:#360E66;stroke:#360E66;stroke-width:2;}
	.st24{fill:#FFFFFF;stroke:#360E66;}
	.st25{fill:#011627;stroke:#360E66;stroke-width:2;stroke-linecap:round;stroke-linejoin:round;}
	.st26{fill:#FFFFFF;stroke:#360E66;stroke-width:1.5;stroke-linecap:round;stroke-linejoin:round;}
</style>
<polygon class="st0" points="37,164.5 34.7,151.8 34.1,145.4 36.2,139.6 36.2,132.7 35,125.3 31.4,115.5 27.4,106.3 22.8,94.5 
	20.3,90.5 18.2,89.2 16.5,90.2 15.4,91.1 15.8,93.6 17.4,100.6 20.5,110.6 17.6,110.3 15.4,110.8 13.9,112.8 13.3,114.5 11.6,113.8 
	26.9,166.6 "/>
<path class="st1" d="M161.8,52.9c4.1,12.2,1.4,26.9-7.4,34.2c-4.8,4-10.9,5.6-16,9.1c-5.1,3.5-9.3,10.2-7.3,17
	c1.4,4.5,6.7,13.9-3.1,23.5c-8,8,2.4,33.6,35.4,35.1c10.1,0.5,1.6-6.2,10.5-10.9c8.9-4.7,15.3-13.4,19.3-23.4
	c4-10,5.5-21.2,5.9-32.3c0.5-12.9-0.6-26.5-6.9-37.8C185.9,55.9,173.2,48,161.8,52.9z"/>
<path class="st2" d="M163.4,172.4L163.4,172.4l-32.7-57l0.5-0.2c0,0,0,0,0,0c-0.3-0.7-0.5-1.4-0.7-1.9c-2.1-7.1,2.3-14.1,7.5-17.7
	c2.3-1.5,4.7-2.8,7.2-4v0l0,0l0.1,0c3.1-1.5,6.1-2.9,8.7-5.1l0,0c8.4-6.9,11.4-21,7.3-33.4l0,0l0,0c-0.1-0.1-0.1-0.3,0-0.4
	c0.1-0.1,0.2-0.3,0.3-0.3c6-2.5,12.2-1.7,17.7,1.3c5.5,2.9,10.3,7.9,13.3,13.4c5.4,9.7,7.6,21.8,7,38.3l0,0
	c-0.5,13.1-2.4,23.7-6,32.6v0c-4.3,10.9-11.3,19.3-19.5,23.7l0.2,0.4l-0.2-0.4c-1.9,1-3,2.1-3.7,3.3c-0.6,1.1-0.7,2.3-0.8,3.3l0,0
	c-0.1,1-0.3,1.9-0.6,2.5c-0.3,0.6-0.9,1.1-1.8,1.4C166,172.3,164.7,172.5,163.4,172.4z M162.9,53.2l-0.5,0.2l0.1,0.5
	c3.8,12.8,0.5,26.9-7.9,33.9v0c-2.7,2.2-5.8,3.8-8.9,5.3c-2.5,1.1-4.8,2.4-7.1,3.9v0l0,0c-4.7,3.3-9.1,9.7-7.1,16.2
	c0.2,0.5,0.4,1.1,0.6,1.7l0,0.1v0c0.9,2.4,2.1,5.8,2,9.7c-0.1,3.9-1.5,8.2-5.9,12.6l0,0c-2.7,2.7-3.1,7.5-1.3,12.4
	c3.4,9.4,14.9,20.5,36.3,21.5h0c1.1,0,2,0,2.7-0.1c0.7-0.1,1.2-0.3,1.6-0.6c0.4-0.3,0.6-0.7,0.8-1.2c0.1-0.4,0.2-0.9,0.2-1.4l0,0
	c0.1-1.1,0.3-2.4,0.9-3.7c0.7-1.3,1.8-2.6,4.1-3.8l0,0c8.1-4.3,14.9-12.5,19.1-23.1l0,0c3.5-8.7,5.4-19.2,5.9-32.1v0
	c0.6-16-1.6-27.9-6.8-37.4v0c-2.8-5-7-9.5-12-12.4c-5-2.9-10.7-4-16.3-2.2v0l0,0L162.9,53.2z"/>
<path class="st3" d="M103.9,31c0.2,16.3,0,33.8-9.5,47.3c-3.1,4.4-7.1,8.1-9.8,12.7c-3.2,5.4-4.6,11.8-5.2,18.1
	c-1.2,11.9,0,24.5,6.7,34.4c6.7,9.9,20,16.2,31.5,12.3c10.1-3.5,16.4-13.8,17.9-24.1s-1.1-20.8-4-30.9
	C124.6,76.6,115.5,52.9,103.9,31z"/>
<path class="st4" d="M106,157.5c-8.1-1.7-15.3-6.5-19.8-13.4c-5.9-8.9-8.2-20.8-6.7-35.1c0.8-7.8,2.5-13.7,5.3-18.5
	c1.7-2.7,3.5-5.2,5.6-7.6c1.4-1.7,2.8-3.4,4.1-5.2c8.8-12.7,9.3-28.6,9.1-46.7c0-0.2,0.1-0.4,0.2-0.6c0.1-0.2,0.3-0.3,0.6-0.4
	c0.2-0.1,0.5,0,0.7,0.1c0.2,0.1,0.4,0.3,0.5,0.5c10.8,20.7,20,44.2,27.2,69.9c2.8,10,5.4,20.6,4,31.3c-1.6,11.9-8.8,21.7-18.2,25
	C114.4,158.1,110.1,158.4,106,157.5z M105.5,35.3c0,16.7-1.1,31.5-9.5,43.6c-1.3,1.9-2.8,3.6-4.2,5.4c-2,2.3-3.8,4.7-5.4,7.3
	c-2.6,4.5-4.2,10.1-5,17.7C80,123,82.2,134.4,87.8,143c6.9,10.3,19.7,15.4,29.8,11.9c8.7-3,15.4-12.2,16.9-23.3
	c1.4-10.3-1.2-20.7-3.9-30.5C123.9,77,115.4,54.9,105.5,35.3z"/>
<path class="st5" d="M150.7,294.1l-0.3,0.4l0.5,0.3c1.8,1,3.5,0.9,5.2,0.3c1.5-0.5,3-1.5,4.2-2.4l0.1-0.1c0.7-0.5,1.3-0.9,1.8-1.2
	c0.6-0.3,1.1-0.5,1.5-0.6c0.4-0.1,0.8,0,1.1,0.2c0.3,0.2,0.7,0.7,1,1.5l0.1,0.2l0.2,0.1c4.5,1.2,9.3,2.3,14.2,3.3
	c-0.3,0.4-0.7,0.8-1.2,1.3c-4,3.7-10.1,6.4-17.5,8.4c-7.4,1.9-16.2,3-25.4,3.5c-18.4,1-38.6-0.5-54-2.8c-3.7-0.6-6.2-4.1-7.8-8.6
	c-1.7-4.4-2.4-9.6-2.9-13.1c-1.7-14-1.3-27-0.3-40c0.3-4.3,0.7-8.6,1.1-12.9c0.8-8.8,1.6-17.8,2-27.3l-0.9-0.3
	c-3.8,6.5-7.9,12.8-12.5,18.8l0,0c-5,6.7-7.8,10.2-12.1,13.8c-3.6,3-8.8,6.4-13.9,8.6c-2.5,1.1-4.9,1.9-7,2.1c-2.1,0.3-3.8,0-5-0.8
	h0c-1.8-1.3-3.3-4.3-2.4-12.2c1-7.8,4.5-20.2,12.7-39.9c2.6-3,5.6-7.7,9.1-13.2c0.2-0.3,0.4-0.6,0.6-0.9c3.4-5.3,7.2-11.4,11.5-17.3
	c9.1-12.6,20.4-24.8,34.3-29.6l-0.2-0.5l0.2,0.5c4.8-1.7,12.6-2.5,21.7-2.8c9.1-0.3,19.5,0,29.7,0.5c20.4,1.1,39.7,3.5,45.3,4.9
	c10.3,2.5,19.7,9,28.2,17.7c8.5,8.7,16,19.5,22.5,30.8c13,22.6,21.8,46.9,25.8,58.6v0c5.9,17.2,5.6,29.5,1.3,38.1
	c-4.3,8.6-12.7,13.6-23.4,16.2c-16.6,4-38.5,1.8-58.1-2.1c0.3-0.5,0.5-1.1,0.6-1.6c0.3-1.4,0.1-2.8-0.6-3.9c-1.4-2.3-4.5-4-8.2-4.8
	C166.5,283.6,156.1,285.5,150.7,294.1z M151.9,294.1c5.2-7.7,14.8-9.5,21.8-8c3.6,0.8,6.4,2.4,7.5,4.3c0.6,1,0.8,2,0.5,3.2
	c-0.1,0.5-0.4,1.1-0.7,1.7c-5-1-9.8-2.2-14.4-3.3c-0.3-0.8-0.7-1.4-1.2-1.7c-0.6-0.4-1.2-0.5-1.8-0.4c-0.6,0.1-1.2,0.4-1.8,0.7
	c-0.6,0.3-1.3,0.8-1.9,1.2l-0.1,0.1c-1.3,0.9-2.6,1.8-4,2.3C154.4,294.6,153.2,294.7,151.9,294.1z"/>
<path class="st6" d="M120.2,141.2L120.2,141.2L120.2,141.2c1.7-10.6,2.2-21.3,1.6-32c11.6-1.8,21.8-3.5,31.7-6
	c1.8,9.9,4.3,19.1,6.4,26.7c0.9,3.1,1.7,6,2.3,8.6c-0.8,3.3-3.7,8-7.4,12.1c-1.9,2.1-4,3.9-6.1,5.3c-2.1,1.4-4.2,2.4-6.1,2.6
	c-3.8,0.5-7.1-1.7-10.4-4.7c-1-0.9-1.9-1.8-2.8-2.7c-0.6-0.6-1.3-1.3-1.9-1.9c-1.6-1.5-3.2-2.9-4.9-3.9l0,0l0,0
	c-0.9-0.4-1.6-1-2.1-1.8C120,142.7,120,141.9,120.2,141.2z"/>
<path class="st7" d="M121.6,109.2L121.6,109.2 M121.6,109.2L121.6,109.2 M121.6,109.3c0.6,10.6,0.1,21.2-1.6,31.7
	c-0.2,0.9-0.2,1.8,0.1,2.6l0,0.1 M121.6,109.3l-1.4,34.4 M120.1,143.7L120.1,143.7 M120.1,143.7L120.1,143.7 M120.2,143.8
	c0.6,0.8,1.3,1.5,2.3,1.9c2.3,1.3,4.4,3.4,6.7,5.7l0.1,0.1l0,0c2,1.9,4,3.9,6.2,5.4c2.2,1.5,4.5,2.4,7.1,2.1h0 M120.2,143.8
	l22.4,15.1 M142.5,158.9c2-0.2,4.1-1.2,6.2-2.6c2.1-1.4,4.1-3.3,6-5.3c3.7-4.1,6.7-8.9,7.6-12.3l0-0.1 M142.5,158.9l19.8-20.4
	 M162.4,138.5l0-0.1 M162.4,138.5l0-0.1 M122,145.7L122,145.7L122,145.7c-1-0.5-1.8-1.2-2.4-2.1c-0.3-0.8-0.4-1.7-0.1-2.6l0,0l0,0
	c1.7-10.7,2.2-21.5,1.5-32.2c0,0,0-0.1,0-0.1c0,0,0.1,0,0.1,0l0,0l0,0c12.9-2,22.8-3.7,32.6-6.1h0c0.1,0,0.2,0,0.3,0l0,0
	c0,0,0,0,0,0c0,0,0,0,0,0c1.8,10.1,4.4,19.5,6.5,27.1l0,0l0,0l0.1,0.3c0.8,3,1.6,5.9,2.2,8.4c-0.8,3.5-3.8,8.4-7.7,12.6
	c-1.9,2.1-4.1,4-6.2,5.4c-2.2,1.4-4.3,2.4-6.3,2.6h0c-0.4,0-0.8,0.1-1.2,0.1c-2.4,0-4.6-0.9-6.7-2.4c-2.1-1.5-4.1-3.4-6.1-5.3
	c-0.1-0.1-0.1-0.1-0.2-0.2C126.3,149.1,124.2,147,122,145.7z"/>
<path class="st6" d="M109.2,34.9L109.2,34.9c0.3-4.7,4.5-8.3,10.4-10.7c5.8-2.4,13-3.4,18.7-3c3.9,0.4,7.8,1.3,11.5,2.7v0l0,0
	c11.2,4,21.9,10.2,27.6,19.4c-1.5,7.2-2.1,14.6-1.8,21.9l0,0.8l0.7-0.3c1.3-0.6,2-0.9,2.7-1c0.7-0.1,1.5,0,3,0.2l0,0
	c1.8,0.3,3.4,1.5,4.4,3.1c1.1,1.6,1.5,3.5,1.2,5v0c-1.1,5.4-7.9,8.4-13.7,5.5l-0.7-0.3l0,0.8c-0.5,7.3-3.7,14.1-7.9,19.5
	c-4.2,5.4-9.4,9.3-13.6,10.9l0,0c-5.8,2.2-11.9,3.1-18.1,2.6c-6.1-0.5-12.1-2.4-17.4-5.5l0,0c-9.6-5.7-13.2-14.9-14.1-23.4
	c-0.5-4.3-0.2-8.3,0.3-11.6c0.5-3.3,1.2-5.8,1.8-7v0c3.8-8,4.3-17,4.7-25.7C109,37.3,109.1,36.1,109.2,34.9z"/>
<path class="st2" d="M182.2,63.6c-2.4-0.3-3.3-0.4-4.7,0.1l-0.7,0.3l0-0.7c-0.1-6.7,0.5-13.4,1.9-20 M182.2,63.6l-3.1-20.2
	 M182.2,63.6c1,0.2,2,0.6,2.9,1.2c0.9,0.6,1.6,1.3,2.2,2.2l0,0l0,0c0.7,0.9,1.1,1.9,1.4,3c0.3,1.1,0.3,2.2,0.2,3.3
	c-0.3,1.4-0.9,2.7-1.8,3.8c-0.9,1.1-2.1,2-3.4,2.6l0,0c-2.7,1.3-5.8,1.5-8.7,0.5l-0.6-0.2l-0.1,0.6c-0.9,7.4-4.3,14-8.6,19.2
	c-4.3,5.2-9.4,9-13.5,10.5l0,0c-7.4,2.8-15.4,3.5-23.1,2c-4.7-0.9-9.3-2.7-13.4-5.1h0c-9.8-5.8-13.6-15.1-14.7-23.9
	c-1.1-8.8,0.7-16.8,2.1-19.8c3.7-7.8,4.2-16.7,4.6-25.1l0-0.1c0,0,0,0,0,0c0-0.4,0-0.8,0.1-1.2c0-0.8,0.1-1.6,0.1-2.4
	c0.2-2.8,1.5-5.3,4.1-7.6l0,0c3.1-2.7,7.6-4.7,12.5-5.9c4.8-1.2,9.9-1.7,13.9-1.4 M182.2,63.6l-43.8-43.7 M178.6,43.3
	C178.6,43.3,178.6,43.3,178.6,43.3l0.5,0.1 M178.6,43.3C178.6,43.3,178.6,43.3,178.6,43.3l0.5,0.1 M178.6,43.3c0-0.2,0-0.4-0.1-0.5
	 M179.1,43.4c0.1-0.3,0-0.6-0.2-0.9 M178.5,42.8C178.5,42.8,178.5,42.8,178.5,42.8l0.4-0.3 M178.5,42.8
	c-6.4-10.6-18.9-16.8-28.3-20.1l0,0v0c-3.8-1.4-7.8-2.4-11.9-2.8 M178.5,42.8C178.5,42.8,178.5,42.8,178.5,42.8l0.4-0.3 M179,42.5
	c-6.5-10.7-19.1-17-28.6-20.3l-12.1-2.3 M142.1,21.9L142.1,21.9L142.1,21.9c-1.3-0.3-2.5-0.4-3.8-0.5l0,0c-3.9-0.3-8.7,0.2-13.3,1.3
	c-4.6,1.1-9,3-12,5.7c-2.2,2-3.5,4.2-3.6,6.6l0,0l-0.2,3.6v0c-0.5,8.8-0.9,17.8-4.8,25.8l0,0c-0.4,0.9-1.1,3.2-1.6,6.3
	c-0.5,3.1-0.8,7.1-0.5,11.4c0.7,8.5,4.1,18.1,14.1,24c10.8,6.3,23.3,7.4,35.3,3c4.1-1.5,9.2-5.4,13.4-10.7c4.2-5.3,7.5-12.1,8-19.4
	l0,0c0-0.1,0-0.2,0.1-0.3c0.1-0.1,0.1-0.2,0.2-0.2c0.1-0.1,0.2-0.1,0.3-0.1c0.1,0,0.2,0,0.3,0.1l0,0l0,0c1.4,0.7,2.9,1.1,4.5,1.1
	c1.5,0,3.1-0.3,4.5-1c1.1-0.5,2.1-1.3,2.8-2.2c0.8-0.9,1.3-2,1.6-3.2l0,0l0,0c0.2-1.8-0.3-3.6-1.4-5c-0.5-0.7-1.1-1.3-1.7-1.8
	c-0.7-0.5-1.5-0.8-2.3-1l0,0l0,0l-0.1,0c-1.4-0.2-2.2-0.3-2.9-0.2c-0.8,0.1-1.4,0.4-2.6,1c-0.1,0.1-0.2,0.1-0.4,0.1s-0.2,0-0.3-0.1
	c-0.1-0.1-0.2-0.2-0.3-0.3c-0.1-0.1-0.1-0.2-0.1-0.4v0c-0.3-7.3,0.3-14.5,1.7-21.7l0-0.2l-0.1-0.2c-6.3-10-18.3-15.9-27.3-19.1
	C147.2,23.2,144.7,22.4,142.1,21.9z"/>
<path class="st2" d="M113,64.2L113,64.2L113,64.2c0-0.3,0.1-0.6,0.3-0.9c0.2-0.3,0.4-0.5,0.7-0.6c0.3-0.1,0.6-0.1,0.9-0.1
	c0.3,0.1,0.6,0.2,0.8,0.5c0.2,0.2,0.4,0.5,0.4,0.8c0.1,0.3,0,0.6-0.1,0.9c-0.1,0.3-0.3,0.5-0.6,0.7c-0.3,0.2-0.6,0.2-0.9,0.2v0l0,0
	c-0.4,0-0.8-0.2-1.1-0.5C113.2,65,113,64.6,113,64.2z"/>
<path class="st2" d="M144.7,67.1L144.7,67.1L144.7,67.1c0-0.3,0.1-0.6,0.3-0.9c0.2-0.3,0.4-0.5,0.7-0.6c0.3-0.1,0.6-0.1,0.9-0.1
	c0.3,0.1,0.6,0.2,0.8,0.5c0.2,0.2,0.4,0.5,0.4,0.8c0.1,0.3,0,0.6-0.1,0.9l0.5,0.2l-0.5-0.2c-0.1,0.3-0.3,0.5-0.6,0.7
	s-0.6,0.2-0.9,0.2v0l0,0c-0.4,0-0.8-0.2-1.1-0.5C144.8,67.9,144.7,67.5,144.7,67.1z"/>
<path class="st2" d="M174.4,71.4L174.4,71.4L174.4,71.4c0,0.1-0.1,0.2-0.3,0.3c-0.1,0.1-0.2,0.1-0.4,0.1l-0.1,0
	c-0.1,0-0.3-0.2-0.3-0.3c-0.1-0.1-0.1-0.3,0-0.4c0.5-1.6,0.8-2.6,1.3-3.9c0.1-0.2,0.1-0.5,0.2-0.7c0-0.1,0.1-0.3,0.3-0.3
	c0.1-0.1,0.3-0.1,0.4-0.1c0.1,0,0.3,0.1,0.3,0.3c0.1,0.1,0.1,0.3,0,0.4c0,0,0,0.1,0,0.1C175.3,68.5,175,69.6,174.4,71.4z"/>
<path class="st8" d="M151.3,55L151.3,55L151.3,55c-0.5-0.1-0.9-0.1-1.4-0.2l0,0c-6.5-0.4-12.1,5.1-12.5,12.3
	c-0.4,7.2,4.4,13.4,10.9,13.8c6.5,0.4,12.1-5.2,12.5-12.3c0.2-3.4-0.8-6.8-2.9-9.5C156.3,57,153.9,55.5,151.3,55z"/>
<path class="st4" d="M110.9,78.3L110.9,78.3c-3-0.6-5.6-2.2-7.4-4.6l0,0c-2.3-3-3.4-6.7-3.1-10.4h0v0c0.5-8,6.8-14,13.9-13.6
	c1.8,0.1,3.5,0.6,5,1.4c1.6,0.8,2.9,2,4,3.4v0l0,0c2.3,2.9,3.4,6.6,3.2,10.4v0c-0.5,8-6.8,14-13.9,13.6l0,0
	C112,78.5,111.4,78.4,110.9,78.3z M115.6,51.2L115.6,51.2L115.6,51.2c-0.5-0.1-0.9-0.1-1.4-0.2l0,0l0,0c-6.5-0.4-12.1,5.2-12.5,12.3
	c-0.3,3.4,0.8,6.8,2.9,9.5c1,1.2,2.2,2.3,3.5,3c1.4,0.7,2.9,1.2,4.5,1.3l0,0c6.5,0.4,12.1-5.2,12.5-12.3c0.2-3.4-0.8-6.8-2.9-9.5
	C120.6,53.3,118.2,51.8,115.6,51.2z"/>
<path class="st9" d="M127.7,85.5l-0.1,0c-0.1,0-0.2,0-0.2-0.1l-2.7-1.6l0,0l0,0c-0.2-0.1-0.5-0.3-0.6-0.5c-0.2-0.2-0.3-0.4-0.4-0.7
	c0-0.3,0-0.6,0.2-0.9c0.1-0.3,0.4-0.6,0.6-0.8l0,0l0,0c1.4-1.2,2.4-2.8,3.1-4.5c0.7-1.7,1-3.6,0.8-5.4l0,0l0,0c0-0.1,0-0.2,0-0.3
	c0-0.1,0.1-0.2,0.1-0.2c0.1-0.1,0.1-0.1,0.2-0.2c0.1,0,0.2-0.1,0.3-0.1s0.2,0,0.3,0c0.1,0,0.2,0.1,0.2,0.1c0.1,0.1,0.1,0.1,0.2,0.2
	c0,0.1,0.1,0.2,0.1,0.3v0l0,0c0.2,2.1-0.2,4.1-0.9,6c-0.7,1.9-1.9,3.5-3.3,4.9l-0.2,0.3l0.1,0.6l2.7,1.7v0l0,0
	c0.1,0.1,0.2,0.2,0.3,0.4c0.1,0.2,0,0.3,0,0.5c-0.1,0.1-0.2,0.3-0.3,0.3C127.9,85.4,127.8,85.5,127.7,85.5z"/>
<path class="st5" d="M171.1,63.5L171.1,63.5L171.1,63.5l-9.7,0.8l0,0l0,0c-0.1,0-0.1,0-0.2,0c-0.1,0-0.1,0-0.2-0.1l-0.3,0.4l0.3-0.4
	c-0.1,0-0.1-0.1-0.1-0.2c0-0.1-0.1-0.1-0.1-0.2c0-0.1,0.1-0.3,0.1-0.4c0.1-0.1,0.2-0.2,0.4-0.2l0,0l0,0l9.7-0.8l0,0l0,0
	c0.1,0,0.1,0,0.2,0c0.1,0,0.1,0,0.2,0.1c0.1,0,0.1,0.1,0.1,0.2c0,0.1,0.1,0.1,0.1,0.2c0,0.1-0.1,0.3-0.1,0.4l0.4,0.3l-0.4-0.3
	C171.3,63.4,171.2,63.5,171.1,63.5z"/>
<g class="st10">
	<path class="st5" d="M107.7,39.7L107.7,39.7L107.7,39.7C107.7,39.7,107.7,39.7,107.7,39.7C107.7,39.7,107.7,39.7,107.7,39.7
		c0.1,0,0.1,0,0.1,0c0,0,0.1,0,0.1,0.1c0.1,0,0.2,0.1,0.3,0.2c0.3,0.1,0.5,0.2,0.6,0.3l0,0l0,0c1.3,0.6,2.6,1.2,4,1.7l0,0l0,0
		c0.6,0.2,1.2,0.4,1.8,0.5c0.1,0,0.1,0,0.2,0.1c0.6,0.2,1.1,0.3,1.7,0.5c1.2,0.4,2.5,0.6,3.7,0.7c2.9,0.5,5.9,0.3,8.8-0.5v0l0,0
		c2.9-0.8,5-2.6,7.6-5.4c0.1-0.1,0.3-0.3,0.4-0.4l0,0c0.1-0.1,0.2-0.2,0.3-0.3c0.1,0,0.1-0.1,0.1-0.1c0,0,0,0,0,0l0,0l0,0
		c0.1,0.1,0.2,0.2,0.3,0.5c0.1,0.3,0.2,0.6,0.3,0.9c0.1,0.3,0.1,0.6,0,0.9c0,0.3-0.1,0.4-0.1,0.4l0,0l0,0c-1.4,1.5-2.8,3-4.3,4.3
		c-1.5,1.2-3,2.1-4.6,2.5l0,0l0,0c-2,0.5-4,0.8-6.1,0.8c-1.7-0.2-3.5-0.5-5.1-0.9l0,0l0,0c-2.7-0.6-5.4-1.4-8-2.4
		c-0.4-0.2-0.9-0.4-1.3-0.6l0,0l0,0c-0.2-0.1-0.4-0.3-0.6-0.5l0,0l0,0c-0.5-0.8-0.7-1.8-0.6-2.7c0.1-0.3,0.2-0.4,0.2-0.5
		C107.6,39.7,107.6,39.7,107.7,39.7L107.7,39.7C107.6,39.7,107.6,39.7,107.7,39.7z M137.4,37.1C137.4,37.1,137.4,37.1,137.4,37.1
		C137.4,37.1,137.4,37.1,137.4,37.1z"/>
</g>
<path class="st11" d="M169,84.5c3.2-12.9,5.5-25,1-30.1c-0.5-0.5-1.9-2-1.9-4c0-3,3.2-6.5,5.2-6.2c5.6,0.8,10.8,31.6-1.5,55.2
	c-3.5,6.7-8.4,12.9-9.6,12.3C161.1,111.1,164.5,102.7,169,84.5z"/>
<path class="st11" d="M90.5,34.2c-0.5,2.9,17.2,12.7,35.5,8.9c5.8-1.2,11.3-3.7,16.1-7.2c2.1,6.6,5.2,10.1,7.6,12.1
	c7,5.8,13,3.1,18.6,9.6c3.5,4,4.1,8.4,7.3,8.6c2.4,0.2,3.7-2.3,6.6-1.9c2.9,0.4,3.5,2.9,4.9,2.8c3.4-0.2,8.5-15.6,5.4-30.2
	C190,24.5,180.9,9.5,165.4,3.6c-22.5-8.6-48.6,5.5-55,16.6c-1,1.7-3.4,6.7-9,10.1C95.5,33.9,90.8,32.8,90.5,34.2z"/>
<path class="st3" d="M189,69l-2-3l3-4.5l-0.5,2.5l1.5,3.5L189,69z"/>
<path class="st12" d="M198,244.5V221l8.5,14.5l6,15l-6,1L200,252L198,244.5z"/>
<path class="st13" d="M198,244.5V221l8.5,14.5l6,15l-6,1L200,252L198,244.5z"/>
<path class="st14" d="M138.3,247.5c0,0-0.1,0-0.1,0c0,0-0.1-0.1-0.1-0.1c-4.2-6.6-8.6-13.2-13.3-19.6c0-0.1-0.1-0.1,0-0.2
	c0-0.1,0-0.1,0.1-0.2c0.1,0,0.1-0.1,0.2,0c0.1,0,0.1,0.1,0.2,0.1c4.6,6.3,9.1,13,13.3,19.6c0,0.1,0.1,0.1,0,0.2
	c0,0.1-0.1,0.1-0.1,0.2C138.4,247.5,138.3,247.5,138.3,247.5z"/>
<defs>
	<filter id="Adobe_OpacityMaskFilter" filterUnits="userSpaceOnUse" x="123.8" y="226.4" width="15.8" height="22.1">
		<feColorMatrix  type="matrix" values="1 0 0 0 0  0 1 0 0 0  0 0 1 0 0  0 0 0 1 0"/>
	</filter>
</defs>
<mask maskUnits="userSpaceOnUse" x="123.8" y="226.4" width="15.8" height="22.1" id="path-24-inside-1_15_97_00000174586427584498210610000002450362484156249010_">
	<path class="st15" d="M138.3,247.5c0,0-0.1,0-0.1,0c0,0-0.1-0.1-0.1-0.1c-4.2-6.6-8.6-13.2-13.3-19.6c0-0.1-0.1-0.1,0-0.2
		c0-0.1,0-0.1,0.1-0.2c0.1,0,0.1-0.1,0.2,0c0.1,0,0.1,0.1,0.2,0.1c4.6,6.3,9.1,13,13.3,19.6c0,0.1,0.1,0.1,0,0.2
		c0,0.1-0.1,0.1-0.1,0.2C138.4,247.5,138.3,247.5,138.3,247.5z"/>
</mask>
<path class="st16" d="M138.3,247.5l0.1-1l0,0l0,0L138.3,247.5z M138.1,247.4l-0.8,0.5l0,0L138.1,247.4z M124.8,227.8l-0.8,0.6l0,0
	l0,0L124.8,227.8z M124.9,227.4l-0.6-0.8l0,0l0,0L124.9,227.4z M125.2,227.5l-0.8,0.6l0,0L125.2,227.5z M138.5,247.1l-0.8,0.5l0,0
	L138.5,247.1z M138.4,247.4l0.5,0.9l0,0l0,0L138.4,247.4z M138.3,246.5c0.1,0,0.2,0,0.4,0.1l-1,1.8c0.2,0.1,0.4,0.2,0.6,0.2
	L138.3,246.5z M138.6,246.6c0.1,0.1,0.2,0.1,0.3,0.2l-1.7,1.1c0.1,0.2,0.3,0.3,0.5,0.4L138.6,246.6z M138.9,246.8
	c-4.2-6.7-8.7-13.3-13.3-19.6l-1.6,1.2c4.6,6.3,9,12.9,13.2,19.5L138.9,246.8z M125.6,227.2c0.1,0.2,0.2,0.3,0.1,0.5l-2-0.3
	c-0.1,0.3,0,0.7,0.2,0.9L125.6,227.2z M125.8,227.8c0,0.2-0.1,0.4-0.3,0.5l-1.2-1.6c-0.3,0.2-0.4,0.5-0.5,0.8L125.8,227.8z
	 M125.4,228.2c-0.2,0.1-0.4,0.1-0.5,0.1l0.3-2c-0.3-0.1-0.7,0-0.9,0.2L125.4,228.2z M124.9,228.4c-0.2,0-0.4-0.1-0.5-0.3l1.6-1.2
	c-0.2-0.3-0.5-0.5-0.8-0.5L124.9,228.4z M124.4,228.1c4.6,6.3,9.1,12.9,13.2,19.5l1.7-1.1c-4.2-6.7-8.7-13.3-13.3-19.6L124.4,228.1z
	 M137.7,247.6c-0.1-0.2-0.1-0.4-0.1-0.6l2,0.4c0.1-0.3,0-0.7-0.2-1L137.7,247.6z M137.6,247.1c0-0.2,0.2-0.4,0.3-0.5l1.1,1.7
	c0.3-0.2,0.5-0.5,0.5-0.8L137.6,247.1z M137.9,246.6c0.1-0.1,0.3-0.1,0.4-0.1l-0.1,2c0.3,0,0.5,0,0.7-0.2L137.9,246.6z"/>
<path class="st5" d="M124,234.8L124,234.8 M124,234.8L124,234.8 M124,234.8L124,234.8 M124,234.8L124,234.8"/>
<path class="st14" d="M134.1,257.4c0,0-0.1,0-0.1,0c0,0-0.1-0.1-0.1-0.1l-6.5-10c0-0.1-0.1-0.1,0-0.2c0-0.1,0.1-0.1,0.1-0.2
	c0,0,0.1,0,0.1,0c0,0,0.1,0,0.1,0c0,0,0.1,0,0.1,0c0,0,0.1,0,0.1,0.1l6.5,10c0,0.1,0.1,0.1,0,0.2c0,0.1-0.1,0.1-0.1,0.2
	C134.2,257.4,134.1,257.4,134.1,257.4z"/>
<defs>
	
		<filter id="Adobe_OpacityMaskFilter_00000140012734137634810330000005007869816333508996_" filterUnits="userSpaceOnUse" x="126.4" y="245.9" width="9" height="12.5">
		<feColorMatrix  type="matrix" values="1 0 0 0 0  0 1 0 0 0  0 0 1 0 0  0 0 0 1 0"/>
	</filter>
</defs>
<mask maskUnits="userSpaceOnUse" x="126.4" y="245.9" width="9" height="12.5" id="path-27-inside-2_15_97_00000172434988690346858160000000068157952296947128_">
	<path style="fill:#FFFFFF;filter:url(#Adobe_OpacityMaskFilter_00000140012734137634810330000005007869816333508996_);" d="
		M134.1,257.4c0,0-0.1,0-0.1,0c0,0-0.1-0.1-0.1-0.1l-6.5-10c0-0.1-0.1-0.1,0-0.2c0-0.1,0.1-0.1,0.1-0.2c0,0,0.1,0,0.1,0
		c0,0,0.1,0,0.1,0c0,0,0.1,0,0.1,0c0,0,0.1,0,0.1,0.1l6.5,10c0,0.1,0.1,0.1,0,0.2c0,0.1-0.1,0.1-0.1,0.2
		C134.2,257.4,134.1,257.4,134.1,257.4z"/>
</mask>
<path class="st18" d="M134.1,257.4l0,1h0l0,0L134.1,257.4z M133.9,257.3l0.8-0.5l0,0L133.9,257.3z M127.4,247.3l-0.8,0.5l0,0
	L127.4,247.3z M127.5,247l-0.5-0.8l0,0L127.5,247z M127.8,247.1l-0.8,0.5l0,0L127.8,247.1z M134.3,257l0.8-0.5l0,0L134.3,257z
	 M134.2,257.4l-0.5-0.8l0,0L134.2,257.4z M134.1,256.4c0.1,0,0.2,0,0.4,0.1l-1,1.8c0.2,0.1,0.4,0.2,0.6,0.2L134.1,256.4z
	 M134.5,256.5c0.1,0.1,0.2,0.1,0.3,0.2l-1.7,1.1c0.1,0.2,0.3,0.3,0.5,0.4L134.5,256.5z M134.7,256.8l-6.5-10l-1.7,1.1l6.5,10
	L134.7,256.8z M128.2,246.8c0.1,0.2,0.1,0.4,0.1,0.6l-2-0.4c-0.1,0.3,0,0.7,0.2,1L128.2,246.8z M128.3,247.3c0,0.2-0.2,0.4-0.3,0.5
	l-1.1-1.7c-0.3,0.2-0.5,0.5-0.5,0.8L128.3,247.3z M128,247.8c-0.1,0.1-0.2,0.1-0.3,0.1l-0.4-2c-0.2,0-0.3,0.1-0.5,0.2L128,247.8z
	 M127.7,247.9c-0.1,0-0.2,0-0.3,0l0.4-2c-0.2,0-0.3,0-0.5,0L127.7,247.9z M127.5,247.9c-0.1,0-0.2-0.1-0.3-0.1l1.1-1.6
	c-0.1-0.1-0.3-0.2-0.5-0.2L127.5,247.9z M127.2,247.8c-0.1-0.1-0.1-0.1-0.2-0.2l1.7-1.1c-0.1-0.1-0.2-0.3-0.3-0.4L127.2,247.8z
	 M127,247.6l6.5,10l1.7-1.1l-6.5-10L127,247.6z M133.5,257.6c-0.1-0.2-0.1-0.4-0.1-0.6l2,0.4c0.1-0.3,0-0.7-0.2-1L133.5,257.6z
	 M133.4,257c0-0.2,0.2-0.4,0.3-0.5l1.1,1.7c0.3-0.2,0.5-0.5,0.5-0.8L133.4,257z M133.7,256.6c0.1-0.1,0.3-0.1,0.4-0.1l0.1,2
	c0.2,0,0.5-0.1,0.7-0.2L133.7,256.6z"/>
<path class="st1" d="M103.6,215.6l75-24.7l32.7,98.9l-75.4,26.1L103.6,215.6z"/>
<path class="st2" d="M135.6,316.8L135.6,316.8L135.6,316.8c-0.1,0-0.1,0-0.1,0l0,0l0,0c0,0-0.1,0-0.1-0.1l-0.4,0.3l0.4-0.3
	c0,0,0-0.1-0.1-0.1v0l-32.5-101.3l0,0c0-0.1,0-0.2,0-0.2c0-0.1,0.1-0.1,0.2-0.1l0,0l75.9-25h0c0,0,0.1,0,0.1,0c0,0,0.1,0,0.1,0
	c0,0,0.1,0,0.1,0.1c0,0,0,0.1,0.1,0.1h0l33,99.8c0,0,0,0,0,0c0,0.1,0,0.2,0,0.2l0.4,0.2l-0.4-0.2c0,0.1-0.1,0.1-0.2,0.1l0,0
	L135.6,316.8C135.6,316.8,135.6,316.8,135.6,316.8z M103.8,215.3l-0.5,0.2l0.2,0.5l32,99.8l0.2,0.5l0.5-0.2l74.8-25.9l0.5-0.2
	l-0.2-0.5l-32.5-98.3l-0.2-0.5l-0.5,0.2L103.8,215.3z"/>
<path class="st6" d="M114.2,255L114.2,255c-0.1,0-0.1,0-0.2,0c-1.6,0.2-3.5,0.3-5,1c-0.8,0.4-1.5,0.8-1.9,1.5
	c-0.4,0.6-0.7,1.5-0.7,2.6c0,0.5,0.3,0.9,0.7,1.2c0.4,0.3,1.1,0.5,1.8,0.7c0.8,0.2,1.7,0.3,2.6,0.4l0,0c0.9,0.1,1.9,0.2,2.9,0.4l0,1
	c-0.8,0.1-1.7,0.7-2.3,1.7c-0.6,1-0.9,2.2-0.7,3.4c0.2,1.2,0.8,2.2,1.5,2.8c0.8,0.6,1.7,0.9,2.5,0.6l1.7-0.5l-1.1,1.3
	c-0.5,0.7-0.9,1.4-1,2.3c-0.1,0.8,0,1.7,0.3,2.5c0.6,1.5,2.1,2.2,3.3,1.8l1-0.4l-0.3,1c-0.2,0.7-0.2,1.6,0,2.3
	c0.2,0.8,0.6,1.4,1.2,2c1.1,0.9,2.4,1.2,3.9,1.4l0,0c5.2,0.8,9.5,0.2,14.3-0.7c0.4-0.1,0.8-0.1,1.2-0.2c4.5-0.8,9.5-1.6,15.9-1.6
	c0.5,0,1.1-0.3,1.6-0.8c0.4-0.3,0.7-0.7,1.1-1.1c0.2-0.2,0.4-0.4,0.6-0.6c2.7-2.8,4-7.2,5.2-11.6v0c0.8-2.9,1.6-5.8,1.4-8.8l0,0l0,0
	c0-0.8-0.6-1.4-1.9-1.9c-1.2-0.5-2.9-0.7-4.8-0.9c-1.8-0.1-3.8-0.1-5.4-0.1c-0.3,0-0.5,0-0.8,0c-1.3,0-2.4,0-3.1,0L114.2,255z
	 M114.2,255c6.1-0.6,11.3-0.3,16.8,0.4 M114.2,255l16.8,0.4 M131,255.4c1.8,0.2,3.6,0.5,5.6,0.7 M131,255.4l5.6,0.7 M136.6,256.1
	c3.9,0.5,8.2,1.1,13.2,1.5L136.6,256.1z"/>
<path class="st2" d="M108.5,255.4c1.7-0.8,3.9-1,5.4-1.2h0.2h0l0,0c8.2-0.8,14.8,0.1,22.5,1.1h0l0.2,0c4,0.5,8.1,1.1,13,1.5l0,0
	c0.7,0.1,1.8,0,3.1,0c2.8,0,6.3-0.1,9,0.4c1.4,0.2,2.6,0.6,3.4,1.2c0.8,0.5,1.2,1.2,1.3,2.1c0.1,3.1-0.7,6.2-1.5,9l0,0l0,0
	c-0.6,2-1.2,4.2-2,6.4c-0.9,2.1-1.9,4.1-3.4,5.6l0,0l0,0l-0.5,0.6l0,0c-0.5,0.5-1,1.1-1.6,1.5c-0.6,0.4-1.1,0.6-1.8,0.6h0
	c-5.3,0.1-10.6,0.6-15.8,1.7h0c-3.6,0.7-7.2,1.1-10.9,1.2c-1.7,0-3.3-0.1-5-0.4l0,0c-1.5-0.2-3-0.5-4.3-1.6c-0.6-0.5-1-1.1-1.3-1.8
	c-0.3-0.7-0.4-1.4-0.4-2.2l0-0.5l-0.5,0c-0.7,0-1.4-0.3-2-0.7c-0.6-0.4-1-1-1.3-1.7l0,0c-0.6-1.4-0.5-3,0-4.3l0.2-0.6l-0.6-0.1
	c-0.5-0.1-0.9-0.3-1.3-0.5l0,0c-0.6-0.4-1.2-0.9-1.6-1.6c-0.4-0.6-0.6-1.3-0.7-2.1l0,0l0,0c-0.1-0.8,0-1.6,0.2-2.3
	c0.2-0.8,0.6-1.5,1-2.1l0,0l0,0c0.1-0.2,0.3-0.3,0.4-0.4l0.7-0.7l-1-0.1l-0.5-0.1l0,0h0l0,0c-1.5-0.2-2.9-0.4-4-0.8
	c-0.5-0.2-1-0.5-1.2-0.8c-0.3-0.3-0.5-0.8-0.5-1.4v0c-0.1-1.3,0.2-2.3,0.7-3C106.9,256.4,107.6,255.9,108.5,255.4z M118.8,279.8
	L118.8,279.8L118.8,279.8c0.1,0,0.1,0,0.1,0c0,0,0.1,0.1,0.1,0.1c0,0,0,0.1,0,0.1c0,0,0,0.1,0,0.1l0,0l0,0c-0.2,0.8-0.2,1.6,0,2.4
	c0.2,0.8,0.7,1.5,1.3,2l0,0l0,0c1.1,1,2.5,1.2,4,1.4l0.1-0.5l-0.1,0.5c5.7,0.9,10.3,0.1,15.6-0.9l0.1,0l0,0l0,0
	c5.2-1,10.5-1.6,15.9-1.6c0.6,0,1.1-0.3,1.6-0.7c0.5-0.4,0.9-0.8,1.3-1.3l0,0l0,0l0,0c0.2-0.2,0.3-0.4,0.5-0.6l0,0c0,0,0,0,0,0
	c1.5-1.5,2.5-3.5,3.3-5.5c0.8-2,1.4-4.2,1.9-6.1l0,0v0l0-0.1c0.8-2.8,1.6-5.7,1.4-8.7c0-1-0.8-1.6-1.7-2c-0.9-0.4-2.2-0.7-3.5-0.8
	c-2.7-0.3-5.8-0.3-7.8-0.3h0h0h0h0h0h0h0h0h0h0h0h0h0h0h0h0h0h0h0h0h0h0h0h0h0h0h0h0h0h0h0h0h0h0h0h0h0h0h0h0h0h0h0h0h0h0h0h0h0h0h0
	h0h0h0h0h0h0h0h0h0h0h0h0h0h0h0h0h0h0h0h0h0h0h0h0h0h0h0h0h0h0h0h0h0h0h0h0h0h0h0h0h0h0h0h0h0h0h0h0h0h0h0h0h0h0h0h0h0h0h0h0h0h0h0
	h0h0h0h0h0h0h0h0h0h0h0h0h0h0h0h0h0h0h0h0h0h0h0h0h0h0h0h0h0h0h0h0h0h0h0h0h0h0h0h0h0h0h0h0h0h0h0h0h0h0h0h0h0h0h0h0h0h0h0h0h0h0h0
	h0h0h0h0h0h0h0h0h0h0h0h0h0h0h0h0h0h0h0h0h0h0h0h0h0h0h0h0h0h0h0h0h0h0h0h0h0h0h0h0h0h0h0h0h0h0h0h0h0h0h0h0h0h0h0h0h0h0h0h0h0h0h0
	h0h0h0h0h0h0h0h0h0h0h0h0h0h0h0h0h0h0h0h0h0h0h0h0h0h0h0h0h0h0h0h0h0h0h0h0h0h0h0h0h0h0h0h0h0h0h0h0h0h0h0h0h0h0h0h0h0h0h0h0h0h0h0
	h0h0h0h0h0h0h0h0h0h0h0h0h0h0h0h0h0h0h0h0h0h0h0h0h0h0h0h0h0h0h0h0h0h0h0h0h0h0h0h0h0h0h0h0h0h0h0h0h0h0h0h0h0h0h0h0h0h0h0h0h0h0h0
	h0h0h0h0h0h0h0h0h0h0h0h0h0h0h0h0h0h0h0h0h0h0h0h0h0h0h0h0h0h0h0h0h0h0h0h0h0h0h0h0h0h0h0h0h0h0h0h0h0h0h0h0h0h0h0h0h0h0h0h0h0h0h0
	h0h0h0h0h0h0h0h0h0h0h0h0h0h0h0h0h0h0h0h0h0h0h0h0h0h0h0h0h0h0h0h0h0h0h0h0h0h0h0h0h0h0h0h0h0h0h0h0h0h0h0h0h0h0h0h0h0h0h0h0h0h0h0
	h0h0h0h0h0h0h0h0h0h0h0h0h0h0h0h0h0c-4.9-0.4-9.2-1-13-1.5l-0.1,0l0,0c-7.6-1-14.2-1.9-22.4-1.1H114h0l0,0c-2,0.2-3.9,0.5-5.4,1.2
	c-0.7,0.4-1.4,0.9-1.8,1.6c-0.4,0.7-0.6,1.6-0.6,2.6c0,0.5,0.2,0.8,0.5,1.2c0.3,0.3,0.7,0.5,1.2,0.7c0.9,0.3,2.1,0.5,3.6,0.7
	c0,0,0.1,0,0.1,0c1,0.1,1.9,0.2,2.8,0.4l0,0l0,0c0.1,0,0.1,0.1,0.2,0.1l0.4-0.3l-0.4,0.3c0,0.1,0.1,0.1,0.1,0.2c0,0.1,0,0.1-0.1,0.2
	l0.4,0.4l-0.4-0.4c0,0-0.1,0.1-0.2,0.1l0,0l0,0c-0.4,0.1-0.8,0.2-1.2,0.4c-0.4,0.2-0.7,0.5-0.9,0.9c-0.9,1.1-1.2,2.5-1.1,4
	c0.1,0.6,0.3,1.3,0.6,1.8c0.3,0.6,0.8,1,1.3,1.4c0.3,0.2,0.7,0.4,1.1,0.4c0.4,0.1,0.8,0,1.2-0.1l0,0l0,0c0.1,0,0.1,0,0.2,0
	c0.1,0,0.1,0.1,0.2,0.1c0,0.1,0,0.1,0,0.2c0,0.1,0,0.1-0.1,0.2l0,0l0,0c-0.5,0.7-0.9,1.5-1,2.4c-0.1,0.9,0,1.7,0.3,2.6l0,0l0,0
	c0.6,1.5,2.2,2.4,3.6,1.9l0,0l0,0C118.7,279.8,118.7,279.8,118.8,279.8z"/>
<path class="st14" d="M236,299c0,0-8,6.1-49.2-3.9c-31.3-7.6-39.7-7.7-39.7-7.7s2.3-8.7,2.7-16.3c0.2-5.6,0.1-11.1-0.4-16.7
	c0,0,51.5,0.1,67.6-3.8c16.2-3.9,19.2-6,19.2-6L236,299z"/>
<path class="st2" d="M235.9,298.8c-0.1,0-0.3,0.1-0.4,0.2c-6.3,1.7-10.7,1.8-13.4,1.8c-8.4,0-20.8-1.2-37.4-5.5
	c-7.7-2-17.1-3.9-24.6-5.3c-3.7-0.7-7-1.2-9.3-1.6c-1.2-0.2-2.1-0.3-2.8-0.4c-0.3-0.1-0.6-0.1-0.8-0.1l-0.2,0l-0.1,0c0,0,0,0,0,0
	c0,0,0,0,0,0l0,0c0,0-0.1,0-0.1,0l-0.3,0.4l0.3-0.4c0,0-0.1-0.1-0.1-0.1l0,0c0,0,0-0.1,0-0.1c0,0,0-0.1,0-0.1l0-0.1v0
	c0,0,0-0.1,0-0.1c0-0.1,0.1-0.3,0.2-0.6c0.1-0.5,0.4-1.4,0.6-2.5c0.5-2.4,1.1-6.1,1.7-11.7c1.2-11.2-0.2-17.6-0.3-17.8
	c0,0,0-0.1,0-0.1c0,0,0-0.1,0.1-0.1l0,0c0,0,0.1-0.1,0.1-0.1c0,0,0.1,0,0.1,0h0h0c0,0,0.1,0,0.2,0c1.9,0,16.9,0.2,33.4-0.5
	c8.8-0.4,18-1,26-2.1c8-1,14.8-2.5,18.6-4.6c0.1,0,0.1,0,0.2,0c0.1,0,0.1,0.1,0.2,0.1c0,0.1,0,0.1,0,0.2c0,0.1-0.1,0.1-0.1,0.2
	c-3.6,1.9-9.6,3.4-16.9,4.4c-7.3,1.1-15.8,1.7-24.1,2.2c-16.6,0.9-32.4,0.7-36.5,0.7l-0.6,0l0.1,0.6c0.4,2.2,1,8,0.1,17
	c-0.9,8.4-1.8,12.7-2.3,14.3l-0.1,0.5l0.6,0.1c4.3,0.7,23.2,3.8,36.8,7.4c33.9,9,50.2,4.1,50.8,4c0.2-0.1,0.3-0.1,0.4-0.1
	c0.1,0,3.8-0.8,3.8-0.8C240,297.8,236.1,298.7,235.9,298.8z"/>
<path class="st2" d="M197.4,244.2L197.4,244.2c-0.1,0-0.1,0-0.2-0.1c-0.1-0.1-0.1-0.1-0.1-0.2v0l-0.5-44.8l0,0c0-0.1,0-0.2,0.1-0.2
	c0.1-0.1,0.1-0.1,0.2-0.1v0l0,0c0,0,0.1,0,0.1,0c0,0,0.1,0,0.1,0.1c0,0,0,0.1,0.1,0.1c0,0,0,0.1,0,0.1v0v0l0.5,44.8v0
	c0,0,0,0.1,0,0.1c0,0,0,0.1-0.1,0.1c0,0-0.1,0-0.1,0.1C197.5,244.2,197.4,244.2,197.4,244.2L197.4,244.2L197.4,244.2z"/>
<path class="st2" d="M196.7,218.6l0.4-0.3c0-0.1-0.1-0.1,0-0.2c0-0.1,0.1-0.1,0.1-0.2c0.1,0,0.1-0.1,0.2,0c0.1,0,0.1,0.1,0.2,0.1
	l0,0c6.6,10.4,12,21.4,16.2,32.9h0l0,0c0,0,0,0.1,0,0.1c0,0,0,0.1,0,0.1c0,0,0,0.1-0.1,0.1c0,0-0.1,0-0.1,0.1l0,0l0,0
	c0,0-0.1,0-0.1,0h0c-0.1,0-0.1,0-0.2-0.1c0,0-0.1-0.1-0.1-0.1c-4.2-11.5-9.6-22.5-16.2-32.8L196.7,218.6z M196.7,218.6
	c6.5,10.3,12,21.2,16.1,32.7l1.5-0.6c-4.2-11.5-9.7-22.6-16.3-33 M196.7,218.6c-0.1-0.2-0.2-0.4-0.1-0.6c0-0.2,0.2-0.4,0.3-0.5
	c0.2-0.1,0.4-0.1,0.6-0.1c0.2,0,0.4,0.2,0.5,0.3 M198.1,217.7L198.1,217.7L198.1,217.7z"/>
<path class="st19" d="M136.4,99.1c-1.3,0-2.6-0.2-3.9-0.7c-0.1,0-0.2-0.1-0.3-0.2c-0.1-0.1-0.1-0.2-0.2-0.2c0-0.1-0.1-0.2-0.1-0.3
	c0-0.1,0-0.2,0-0.3c0.1-0.2,0.2-0.4,0.4-0.4c0.2-0.1,0.4-0.1,0.6,0c1.8,0.6,3.7,0.7,5.6,0.3c1.9-0.4,3.6-1.3,4.9-2.6
	c0.1-0.1,0.2-0.1,0.3-0.2c0.1,0,0.2-0.1,0.3-0.1c0.1,0,0.2,0,0.3,0.1c0.1,0,0.2,0.1,0.3,0.2c0.1,0.1,0.1,0.2,0.2,0.3
	s0.1,0.2,0.1,0.3c0,0.1,0,0.2-0.1,0.3c0,0.1-0.1,0.2-0.2,0.3C142.4,97.9,139.4,99.1,136.4,99.1z"/>
<path class="st20" d="M111.7,130.8c6.6,26.8,17.2,61.7,22.1,73.8c0,0,37.8-70.2,36.8-70.8c-3.1,0-5.7-0.8-7.9-0.6
	c-11.2,12-20.2,17.8-26.6,17.6c-6.2-0.1-12.3-8.8-16.1-20.2C116.7,130.7,114.2,130.8,111.7,130.8z"/>
<path class="st4" d="M153.1,285L153.1,285c-0.1,0-0.1,0-0.2,0s-0.1,0-0.1-0.1c0,0,0-0.1,0-0.1c0,0,0-0.1,0-0.1
	c1.2-4.5,1.9-9.1,2.2-13.8c0,0,0-0.1,0-0.1s0-0.1,0.1-0.1c0,0,0.1,0,0.1-0.1c0,0,0.1,0,0.1,0c0,0,0.1,0,0.1,0c0,0,0.1,0,0.1,0.1
	c0,0,0,0.1,0,0.1c0,0,0,0.1,0,0.1c-0.3,4.7-1.1,9.3-2.3,13.9c0,0.1-0.1,0.1-0.1,0.1S153.2,285,153.1,285z"/>
<defs>
	
		<filter id="Adobe_OpacityMaskFilter_00000181051040734457016130000010039223470943299714_" filterUnits="userSpaceOnUse" x="151.8" y="269.6" width="4.8" height="16.4">
		<feColorMatrix  type="matrix" values="1 0 0 0 0  0 1 0 0 0  0 0 1 0 0  0 0 0 1 0"/>
	</filter>
</defs>
<mask maskUnits="userSpaceOnUse" x="151.8" y="269.6" width="4.8" height="16.4" id="path-40-inside-3_15_97_00000114065804416570593530000010024869642112073612_">
	<path style="fill:#FFFFFF;filter:url(#Adobe_OpacityMaskFilter_00000181051040734457016130000010039223470943299714_);" d="
		M153.1,285L153.1,285c-0.1,0-0.1,0-0.2,0s-0.1,0-0.1-0.1c0,0,0-0.1,0-0.1c0,0,0-0.1,0-0.1c1.2-4.5,1.9-9.1,2.2-13.8
		c0,0,0-0.1,0-0.1s0-0.1,0.1-0.1c0,0,0.1,0,0.1-0.1c0,0,0.1,0,0.1,0c0,0,0.1,0,0.1,0c0,0,0.1,0,0.1,0.1c0,0,0,0.1,0,0.1
		c0,0,0,0.1,0,0.1c-0.3,4.7-1.1,9.3-2.3,13.9c0,0.1-0.1,0.1-0.1,0.1S153.2,285,153.1,285z"/>
</mask>
<path class="st22" d="M153.1,285l0-1h0V285z M153,285l-0.2,1l0.1,0h0.1V285z M152.9,284.7l1,0.3l0,0l0,0L152.9,284.7z M155.1,270.9
	l1,0.1l0-0.1l0-0.1L155.1,270.9z M155.6,270.9l-1-0.2l0,0.1l0,0.1L155.6,270.9z M153.4,284.8l1,0.3l0,0l0,0L153.4,284.8z M153.1,284
	L153.1,284l-0.1,2h0.1V284z M153.3,284c0.1,0,0.2,0.1,0.3,0.1l-1.2,1.6c0.1,0.1,0.3,0.2,0.5,0.2L153.3,284z M153.5,284.1
	c0.1,0.1,0.1,0.1,0.2,0.2l-1.7,1c0.1,0.1,0.2,0.3,0.3,0.4L153.5,284.1z M153.7,284.4c0.1,0.1,0.1,0.2,0.1,0.3l-2,0.2
	c0,0.2,0.1,0.3,0.2,0.5L153.7,284.4z M153.8,284.7c0,0.1,0,0.2,0,0.3l-1.9-0.6c0,0.2-0.1,0.3,0,0.5L153.8,284.7z M153.8,284.9
	c1.2-4.6,1.9-9.3,2.3-14l-2-0.1c-0.3,4.6-1.1,9.2-2.2,13.6L153.8,284.9z M156.1,270.8c0,0.1,0,0.2,0,0.3l-1.9-0.7
	c-0.1,0.2-0.1,0.4-0.1,0.5L156.1,270.8z M156.1,271.1c0,0.1-0.1,0.2-0.2,0.3l-1.4-1.4c-0.1,0.1-0.2,0.3-0.3,0.5L156.1,271.1z
	 M155.9,271.4c-0.1,0.1-0.2,0.1-0.3,0.2l-0.7-1.9c-0.2,0.1-0.3,0.2-0.5,0.3L155.9,271.4z M155.6,271.5c-0.1,0-0.2,0.1-0.3,0l0.1-2
	c-0.2,0-0.4,0-0.5,0.1L155.6,271.5z M155.3,271.6c-0.1,0-0.2,0-0.3-0.1l1-1.8c-0.2-0.1-0.3-0.1-0.5-0.2L155.3,271.6z M155,271.5
	c-0.1-0.1-0.2-0.1-0.2-0.2l1.6-1.2c-0.1-0.1-0.2-0.3-0.4-0.4L155,271.5z M154.8,271.3c-0.1-0.1-0.1-0.2-0.1-0.3l2-0.4
	c0-0.2-0.1-0.3-0.2-0.5L154.8,271.3z M154.6,271c0-0.1,0-0.2,0-0.3l2,0.4c0-0.2,0-0.4,0-0.5L154.6,271z M154.6,270.8
	c-0.3,4.6-1.1,9.2-2.2,13.7l1.9,0.5c1.2-4.6,1.9-9.3,2.3-14.1L154.6,270.8z M152.4,284.5c0-0.2,0.1-0.3,0.3-0.4l1.2,1.6
	c0.2-0.2,0.4-0.4,0.5-0.7L152.4,284.5z M152.7,284.1c0.1-0.1,0.3-0.1,0.4-0.1l0,2c0.3,0,0.6-0.1,0.8-0.3L152.7,284.1z"/>
<path class="st2" d="M158.1,280L158.1,280L158.1,280L158.1,280z M158.1,280l-0.1,0.2c0.1,0,0.1,0,0.2,0c0.1,0,0.1-0.1,0.1-0.1
	L158.1,280l0.2,0 M158.1,280l-1.3,6.1h0l0,0l0,0l0-0.2c0.1,0,0.1,0,0.1,0.1l-0.2,0.1l0.2-0.1c0,0.1,0,0.1,0,0.2 M158.4,280l-1.3,6.1
	 M158.4,280L158.4,280L158.4,280L158.4,280z M157,286.2L157,286.2l-0.2,0 M157,286.2l-0.2,0l0,0l0.1,0 M156.8,286.1L156.8,286.1
	L156.8,286.1L156.8,286.1 M156.8,286.1L156.8,286.1 M156.8,286.1L156.8,286.1L156.8,286.1 M156.8,286.1L156.8,286.1L156.8,286.1
	L156.8,286.1 M156.8,286.1L156.8,286.1L156.8,286.1z"/>
<path class="st23" d="M131.5,229.1c-0.1,0-0.1,0-0.2-0.1c0,0-0.1-0.1-0.1-0.1c0,0,0-0.1,0-0.1c0,0,0-0.1,0-0.1c0,0,0-0.1,0.1-0.1
	c0,0,0.1,0,0.1-0.1l35.1-12.2c0.1,0,0.1,0,0.2,0c0.1,0,0.1,0.1,0.1,0.2c0,0.1,0,0.1,0,0.2c0,0.1-0.1,0.1-0.2,0.1L131.5,229.1
	L131.5,229.1z"/>
<path class="st24" d="M11.3,112.8l0.1,0.5c-0.6,0.1-1.2,0.3-1.7,0.7l0,0l0,0c-1.1,0.7-1.5,1.5-1.7,2.2c-0.1,0.7,0.1,1.5,0.3,2.3
	l0.4,1.1l-1-0.4c-1.7-0.7-3.5-0.7-4.8,0.3c-1.3,1-2,1.9-2.3,2.9c-0.3,1-0.2,2.2,0,4.1c1.4,8.8,6.5,18.5,11,24.2l0.1,0.1l0,0.1
	c2,13,2,31.3,2.1,48.9l0,0.1c0,12.6,0.1,24.5,0.8,33.7c0,0.3,0.2,1.1,0.6,2.2c0.4,1.1,0.9,2.4,1.5,3.8c1.2,2.8,2.9,5.7,4.7,7.4h0
	c2.4,2.3,4.9,3.5,7.4,3.8c0.9,0.1,1.9,0.1,2.8-0.1l0,0c1.2-0.2,2.4-0.5,3.8-0.9c-1.3,0.3-2.6,0.4-4,0.4h0c-3.5-0.1-6.9-1.4-9.6-3.6
	l0,0l0,0c-1.8-1.7-3.4-4.6-4.6-7.3c-0.6-1.3-1.1-2.6-1.4-3.6c-0.2-0.5-0.3-0.9-0.4-1.3c-0.1-0.3-0.2-0.6-0.2-0.8 M13.5,170.8
	l2.4,62.6 M11.3,112.8l0.1,0.5c0.6-0.1,1.2-0.1,1.8,0.1l0.5,0.1l0.1-0.5c0.1-0.8,0.5-1.5,1-2.1c0.5-0.6,1.2-1,2-1.2
	c0.8-0.2,1.7-0.1,2.5,0.3l1,0.5l-0.3-1.1c-1-4-2.1-8.1-3.4-12.4l0,0c-0.5-1.8-1-3.6-1-5.1c0-1.5,0.4-2.5,1.4-3v0l0,0
	c0.3-0.2,0.6-0.2,1-0.3c0.3,0,0.7,0,1,0.2c0.8,0.3,1.5,1,2.3,2.3c0.8,1.3,1.7,3.1,2.7,5.7c0,0,0,0,0,0l0.1,0.2l0,0
	c3.4,8.9,4.6,12,8.7,20.2c1.8,3.8,3.4,9.1,3.9,14.2c0.3,2.5,0.3,4.9,0,7c-0.3,2.1-1,3.8-2,5l-0.1,0.1l0,0.2
	c-0.1,1.2,0.1,3.1,0.4,5.5c0.3,2.4,0.8,5.4,1.4,8.7c1.2,6.7,3,14.9,5,23.3c2,8.4,4.2,16.9,6.3,24.1c2.1,7.2,4.1,13.2,5.7,16.5
	c0.3,1,0.6,2.1,0.7,3.1l0,0l0,0c0.5,2.3,0.6,4.7,0.2,7c-0.3,1.4-0.7,2.8-1.3,4.1l0,0c-1.9,4-5.5,7.4-9.5,10c-0.8,0.5-1.6,1-2.5,1.4
	c1-0.6,2-1.4,2.8-2.1c3.2-2.8,5.7-6.1,7.3-8.3l0,0 M38.6,168.6L51.3,237 M15.4,233.5C15.4,233.5,15.4,233.5,15.4,233.5l0.5,0
	 M15.4,233.5L15.4,233.5l0.5,0 M15.4,233.5c-0.7-9.1-0.8-20.9-0.8-33.4l0-0.3l0.5,0 M15.9,233.5c-0.7-9.1-0.8-20.8-0.8-33.3l0-0.3
	 M15.1,199.9l-0.5,0L15.1,199.9z M51.3,237C51.3,237,51.3,236.9,51.3,237c0.9-1.2,1.6-2.5,2.1-3.8l0,0l0,0c0.8-2.7,1-5.6,0.4-8.4
	 M51.3,237l2.4-12.3 M14.1,114.4c-0.1,0-0.1,0-0.1-0.1l0,0c-0.6-0.5-1.3-0.6-2-0.5c-0.7,0.1-1.3,0.3-1.9,0.7l0,0
	c-0.9,0.6-1.4,1.2-1.4,2c-0.1,0.7,0.2,1.5,0.6,2.4h0l0,0c0.2,0.5,0.3,0.9,0.5,1.4c0,0.1,0,0.1,0,0.2c0,0.1-0.1,0.1-0.1,0.1
	c0,0-0.1,0-0.2,0c-0.1,0-0.1,0-0.2-0.1c-0.9-0.7-2-1.2-3.2-1.4l0,0c-0.5-0.1-0.9-0.1-1.4,0c-0.5,0.1-0.9,0.3-1.3,0.6l0,0l0,0
	c-1.1,0.9-1.8,1.7-2.1,2.7c-0.3,1-0.2,2.2,0.1,3.8c1.4,8.9,6.5,18.5,11.1,24.2l2.5,73.3c-0.1-0.9,38.6-0.9,38.2-1.7l0,0l0,0
	c-1.5-3.1-3.5-9-5.7-16.3c-2.1-7.3-4.4-15.8-6.5-24.3c-2-8.5-3.9-16.9-5.1-23.7c-0.6-3.4-1.1-6.5-1.4-8.9c-0.3-2.5-0.4-4.4-0.3-5.5
	h0l0,0c0-0.1,0-0.1,0.1-0.1h0l0,0c1-1.1,1.7-2.8,2-4.7c0.3-2,0.3-4.3,0.1-6.7c-0.5-4.8-1.9-10.2-3.9-14.3c-4-8.3-5.2-11.3-8.6-20.2
	c0,0,0,0,0,0l-0.1-0.2l0,0c-0.5-1.4-1.2-3.1-2-4.5c-0.4-0.7-0.8-1.4-1.2-1.9c-0.4-0.5-0.9-1-1.4-1.2v0l0,0c-0.3-0.1-0.5-0.1-0.8-0.1
	c-0.3,0-0.5,0.1-0.8,0.2c-0.6,0.3-0.9,0.9-1,1.6c-0.1,0.6-0.1,1.4,0,2.1c0.2,1.4,0.6,3,0.9,3.7l0,0.1l0,0c1.6,5.3,2.9,10.5,4.1,15.4
	c0,0.1,0,0.1,0,0.2c0,0.1-0.1,0.1-0.2,0.1l0,0c-0.1,0-0.1,0-0.2,0c-0.1,0-0.1-0.1-0.1-0.1l0,0l0,0c-0.8-1.7-2.3-2.6-3.9-2.2l0,0l0,0
	c-0.8,0.3-1.5,0.8-2,1.5c-0.5,0.7-0.7,1.6-0.6,2.4c0,0,0,0.1,0,0.1l0.4,0.3l-0.4-0.3c0,0-0.1,0.1-0.1,0.1
	C14.2,114.4,14.1,114.4,14.1,114.4 M21.5,112.1c-1.9-1-3.1-1.7-3.3-2L21.5,112.1z M10.3,115 M12.4,150.6
	C12.4,150.6,12.4,150.6,12.4,150.6l0.5-0.1L12.4,150.6C12.4,150.6,12.4,150.6,12.4,150.6z"/>
<path class="st2" d="M11.4,133L11.4,133c0.4,0.1,0.7,0,1.1-0.1c0.5-0.2,0.9-0.5,1.2-1c0.3-0.4,0.4-0.9,0.5-1.5L11.4,133z M11.4,133
	L11.4,133 M11.4,133L11.4,133 M11.4,133c-0.6-0.1-1.2-0.3-1.6-0.7c-0.7-0.6-1.2-1.3-1.6-2.1l0,0 M11.3,132.8l-3.1-2.8 M8.2,130.1
	L8.2,130.1 M8.2,130.1L8.2,130.1 M8.2,130.1l-2-3.5l0,0 M8.2,130.1l-2-3.5 M6.1,126.5c0,0,0-0.1,0-0.1c0,0,0-0.1,0-0.1
	c0,0,0-0.1,0-0.1c0,0,0.1-0.1,0.1-0.1h0 M6.1,126.5l0.1-0.4 M6.2,126.1L6.2,126.1 M6.2,126.1L6.2,126.1 M6.2,126.1c0,0,0.1,0,0.1,0
	c0,0,0.1,0,0.1,0c0,0,0.1,0,0.1,0l0.2-0.1 M6.2,126.1l0.3-0.1 M6.6,126l-0.1,0.2c0,0,0.1,0,0.1,0.1h0l0,0 M6.7,126.1l-0.1,0.2
	 M6.6,126.2l2,3.5c0.4,0.7,0.9,1.4,1.5,2l0,0 M6.6,126.2l3.5,5.5 M10.1,131.8c0.3,0.3,0.6,0.5,1,0.6c0.4,0.1,0.8,0.1,1.1,0l0.1,0
	 M10.1,131.8l2.2,0.5 M12.3,132.3L12.3,132.3 M12.3,132.3L12.3,132.3 M12.3,132.3c0.4-0.2,0.7-0.5,0.9-0.8c0.2-0.3,0.3-0.7,0.3-1.1
	h0 M12.3,132.3l1.2-1.9 M13.5,130.3L13.5,130.3 M13.5,130.3L13.5,130.3 M13.5,130.3c0-0.9-0.2-1.7-0.5-2.5c-0.6-1.8-1.4-3.5-2.4-5
	c0-0.1-0.1-0.1-0.1-0.2c-0.3-0.5-0.8-1.2-1.3-2.1c0-0.1,0-0.1,0-0.2c0-0.1,0.1-0.1,0.1-0.2s0.1-0.1,0.2,0c0.1,0,0.1,0.1,0.2,0.1h0
	 M13.5,130.3l-3.9-10.1 M9.6,120.2L9.6,120.2 M9.6,120.2L9.6,120.2 M9.6,120.2c0.6,1,1.1,1.7,1.5,2.3l0,0 M9.6,120.2l1.5,2.3
	 M11.1,122.5L11.1,122.5 M11.1,122.5L11.1,122.5 M11.1,122.5c1.1,1.6,1.9,3.3,2.5,5.1l0,0 M11.1,122.5l2.5,5.1 M13.6,127.6
	L13.6,127.6 M13.6,127.6L13.6,127.6 M13.6,127.6c0.4,0.9,0.6,1.8,0.5,2.8L13.6,127.6z"/>
<path class="st2" d="M15.4,131.1L15.4,131.1L15.4,131.1c-0.6-0.6-1.3-1.1-1.8-1.7l0,0l0,0c0,0-0.1-0.1-0.1-0.1c0,0,0-0.1,0-0.1
	c0,0,0-0.1,0-0.1c0,0,0-0.1,0.1-0.1c0,0,0.1,0,0.1-0.1c0,0,0.1,0,0.1,0c0,0,0.1,0,0.1,0c0,0,0.1,0,0.1,0.1l0,0l0,0
	c0.6,0.6,1.2,1.1,1.8,1.6c0.3,0.3,0.6,0.5,1,0.7c0.3,0.2,0.7,0.3,1.2,0.3c0.6-0.1,1-0.5,1.2-0.9c0.3-0.4,0.4-1,0.5-1.4l0,0
	c0.1-0.8-0.1-2.2-0.9-4.4c-0.8-2.3-2.3-5.6-4.7-10.3h0l0,0l-0.1-0.2c0-0.1,0-0.1,0-0.2c0-0.1,0.1-0.1,0.1-0.2c0.1,0,0.1,0,0.2,0
	c0.1,0,0.1,0.1,0.2,0.1l0.1,0.2l0,0l0,0c2.1,4,3.6,7.2,4.5,9.8c1,2.5,1.3,4.3,1.2,5.3c-0.1,0.6-0.3,1.3-0.7,1.9
	c-0.4,0.5-0.9,0.9-1.5,1c-0.2,0-0.3,0-0.5,0C16.7,132.1,16,131.7,15.4,131.1z"/>
<path class="st2" d="M23.3,118.2L23.3,118.2L23.3,118.2c-0.1,0-0.1,0-0.2-0.1c0,0-0.1-0.1-0.1-0.2l0,0l0,0c-0.4-1.4-0.9-2.7-1.6-4
	c-0.3-0.7-0.6-1.4-0.8-1.9l0,0l0,0c0,0,0-0.1,0-0.1c0,0,0-0.1,0-0.1c0,0,0-0.1,0.1-0.1c0,0,0.1,0,0.1-0.1c0,0,0.1,0,0.1,0
	c0,0,0.1,0,0.1,0c0,0,0.1,0,0.1,0.1c0,0,0,0.1,0.1,0.1l0,0l0,0c0.2,0.4,0.4,1,0.7,1.6c0,0.1,0.1,0.2,0.1,0.3l0,0l0,0
	c0.7,1.3,1.2,2.7,1.6,4.2c0,0,0,0.1,0,0.1c0,0,0,0.1,0,0.1s0,0.1-0.1,0.1C23.5,118.1,23.4,118.2,23.3,118.2L23.3,118.2L23.3,118.2
	C23.4,118.2,23.3,118.2,23.3,118.2z"/>
<path class="st2" d="M20.1,130.4L20.1,130.4L20.1,130.4C20.1,130.4,20,130.4,20.1,130.4c-0.1-0.1-0.1-0.1-0.1-0.2c0,0,0-0.1,0-0.1
	c0,0,0-0.1,0-0.1l0,0c0-0.1,0.1-0.1,0.2-0.1c0.1,0,0.1,0,0.2,0l0,0l0,0c0.3,0.2,0.7,0.2,1,0.2c0.4,0,0.7-0.2,1-0.4
	c1.1-0.8,1.3-2.3,0.9-4c0,0,0-0.1,0-0.1c0,0,0-0.1,0-0.1c0,0,0-0.1,0.1-0.1c0,0,0.1,0,0.1,0l0,0h0c0.1,0,0.1,0,0.2,0
	c0.1,0,0.1,0.1,0.1,0.2c0.3,1.5,0.2,2.6-0.1,3.3c-0.3,0.7-0.8,1.1-1,1.3c-0.5,0.4-1.2,0.5-1.8,0.5C20.6,130.7,20.3,130.6,20.1,130.4
	z"/>
<path class="st25" d="M13,169.6l26.4-4.9c5.1,23.3,9.4,40.2,13.1,53.7c1.2,4.2,3.2,11.2,0.5,18.3c-2.9,7.6-10.6,14.1-19.4,14.3
	c-1.3,0-9.6,0.1-14.9-6.3c-4.3-5.2-4.4-11.9-4.5-15.3C13.8,214.9,13.3,194.6,13,169.6z"/>
<path class="st4" d="M126.1,63c1.3-2.2,11.2-0.3,11.2,1.2c0,0.4,0.2,1.4-0.5,1.1c-0.5-0.3-0.3-1.5-5.3-1.9c-4.1-0.4-3.8,0.4-4.8,0.6
	C126.7,64,125.6,63.9,126.1,63z"/>
<path class="st14" d="M112.7,131.1c6.6,26.9,16.3,58.8,21.2,71.7c13.7-25.6,33.1-62.4,35.7-68.6c-1.2-0.1-2.3-0.2-3.3-0.3
	c-1.1-0.2-2.2-0.3-3.2-0.3c-10.9,11.8-19.9,17.8-26.7,17.8H136c-6.1-0.1-12.5-7.9-16.6-20.3c-1.5,0-2.9,0-4.2,0.1L112.7,131.1z"/>
<path class="st26" d="M20.8,138.7c0.5-1.5,1.4-3.7,3-6.1c2.1-3.1,2.6-2.8,2.4-4.3c-0.3-1.6,0.5-1.2-3.4-3.9c-2.9-2-5-3.3-5.1-5.5
	c0-0.8,0.8-2.6,2.5-2.3c8.2,1.9,12.4,7.8,15.3,10.5"/>
</svg>
